<?xml version="1.0" encoding="utf-8"?>
<!-- Generator: Adobe Illustrator 27.5.0, SVG Export Plug-In . SVG Version: 6.00 Build 0)  -->
<svg version="1.1" xmlns="http://www.w3.org/2000/svg" xmlns:xlink="http://www.w3.org/1999/xlink" x="0px" y="0px"
	 viewBox="0 0 81.5 101.5" style="enable-background:new 0 0 81.5 101.5;" xml:space="preserve">
<style type="text/css">
	.st0{fill:#E2E2E4;}
	.st1{fill:none;}
</style>
<g id="Warstwa_1">
</g>
<g id="Tryb_izolacji">
	<path class="st0" d="M30.8,86.4L8.5,73.2l0.8-1.4c3.2-5.4,2.1-20.5,1.4-25.9c-1.2-9-1.9-18.7,3.7-28.1C24.5,0.7,46.6-5.1,63.7,4.9
		L63.9,5c17,10.2,22.7,32.4,12.6,49.4c-5.6,9.4-14.3,13.5-22.9,16.8c-5,2-18.8,8.3-22,13.7L30.8,86.4z M12.9,72l16.8,9.9
		c5.7-7,22-13.5,22.7-13.8c10-3.9,16.6-7.6,21.2-15.4c9.2-15.5,4-35.6-11.4-44.9L62,7.8C46.5-1.3,26.4,3.9,17.2,19.5
		c-4.6,7.7-4.6,15.4-3.2,26C14.1,46.2,16.3,63.6,12.9,72"/>
	<polygon class="st0" points="18.1,82.4 7,75.8 5.2,78.7 16.4,85.3 27.5,91.9 29.3,89 	"/>
	<polygon class="st0" points="15,87.7 3.8,81.1 2.1,84 13.2,90.6 24.4,97.2 26.1,94.3 	"/>
	<path class="st0" d="M20,97.8c-0.2,0.1-2.1,1.2-9.4-3c-6.7-3.9-6.7-6.2-6.9-6.6l-3-1.7c-0.2,0.2-0.8,1-0.7,2.2c0.3,2.5,3.2,5.5,9,9
		c0,0,0,0,0,0c5.9,3.5,9.9,4.5,12.2,3.6c1.2-0.5,1.5-1.4,1.6-1.6L20,97.8z"/>
	<path class="st0" d="M53.2,52.4L53.2,53c0,0-0.1,0-0.2,0l4,2.3c-4,2.2-28.6,16.1-34.2,24.9c-1.5-0.8-1.5-0.8-1.7-1
		c-0.3-0.2-0.8-0.6-3.5-2.2c4.8-8.7,5.9-37,6-41.5l3.7,2.2c-0.1-0.1-0.1-0.2-0.1-0.2l0.5-0.3l-4.7-2.8l0,0.6c0,0.3-1,33.3-6.1,42
		l-0.2,0.3l0.3,0.2c2.9,1.7,3.5,2.1,3.8,2.3c0.3,0.2,0.3,0.2,2.1,1.2l0.3,0.2l0.2-0.3c5.4-9.2,34.3-25.1,34.6-25.2l0.5-0.3
		L53.2,52.4z"/>
	<path class="st0" d="M27.1,37.8c0.7,1.7,5.4,13.4,5.2,20.7c0,0.1,0,0.2,0,0.3c6.3-4,18.8-5.6,20.6-5.8c0.1,0,0.2,0,0.2,0l0.1-0.6
		l3.6-34.6L40.4,45.6c0.5,0.6,0.6,1.6,0.1,2.4c-0.6,1-1.7,1.4-2.6,0.9l0,0c-0.8-0.5-1-1.7-0.4-2.7c0.5-0.8,1.4-1.2,2.1-1.1
		l16.4-27.8L27.5,37.2l-0.5,0.3C27.1,37.6,27.1,37.6,27.1,37.8"/>
	<rect y="0" class="st1" width="81.5" height="101.5"/>
</g>
</svg>
